<svg viewBox="0 0 45 45" fill="none" xmlns="http://www.w3.org/2000/svg">
<path d="M13.6507 0.0161349C13.2022 0.0779961 12.7949 0.320115 12.5161 0.690579L6.62327 8.39004L2.73163 5.69226C2.53995 5.5584 2.32474 5.46521 2.09834 5.41805C1.87194 5.37089 1.63881 5.37068 1.41233 5.41743C1.18585 5.46418 0.970477 5.55697 0.77857 5.69049C0.586663 5.824 0.421998 5.9956 0.294023 6.19545C0.166049 6.39529 0.0772844 6.61945 0.0328226 6.85505C-0.0116392 7.09065 -0.010923 7.33307 0.0349302 7.56838C0.0807835 7.8037 0.170871 8.02728 0.300024 8.2263C0.429177 8.42533 0.594853 8.59587 0.787545 8.72816L5.97639 12.3252C6.34007 12.577 6.78191 12.6763 7.21313 12.6033C7.64435 12.5302 8.03301 12.2901 8.301 11.9313L15.2195 2.93873C15.4396 2.65945 15.5739 2.31772 15.6047 1.95801C15.6355 1.59831 15.5614 1.2373 15.3921 0.921966C15.2229 0.606633 14.9662 0.351588 14.6557 0.190027C14.3451 0.0284663 13.9949 -0.0321268 13.6507 0.0161349ZM20.7854 5.41169V9.00873H45V5.41169H20.7854ZM13.6507 16.2028C13.2022 16.2647 12.7949 16.5068 12.5161 16.8772L6.62327 24.5767L2.73163 21.8789C2.34447 21.6106 1.87066 21.5132 1.41444 21.6082C0.958223 21.7031 0.55696 21.9826 0.298929 22.3852C0.040897 22.7878 -0.0527667 23.2805 0.0385423 23.7549C0.129851 24.2293 0.398654 24.6465 0.785816 24.9148L5.97467 28.5119C6.33834 28.7636 6.78018 28.863 7.2114 28.7899C7.64262 28.7169 8.03128 28.4768 8.29927 28.118L15.2177 19.1254C15.4377 18.8462 15.5719 18.5047 15.6027 18.1452C15.6335 17.7857 15.5596 17.4249 15.3906 17.1096C15.2216 16.7944 14.9652 16.5393 14.6549 16.3776C14.3446 16.2159 13.9947 16.155 13.6507 16.2028ZM20.7854 21.5984V25.1954H45V21.5984H20.7854ZM13.6507 32.3895C13.2022 32.4513 12.7949 32.6934 12.5161 33.0639L6.62327 40.7634L2.73163 38.0656C2.53993 37.9327 2.32494 37.8404 2.09894 37.794C1.87293 37.7475 1.64034 37.7478 1.41444 37.7948C0.958223 37.8898 0.55696 38.1693 0.298929 38.5719C0.040897 38.9745 -0.0527667 39.4671 0.0385423 39.9415C0.129851 40.4159 0.398654 40.8332 0.785816 41.1015L5.97467 44.6985C6.33834 44.9503 6.78018 45.0496 7.2114 44.9766C7.64262 44.9035 8.03128 44.6635 8.29927 44.3046L15.2177 35.3121C15.4377 35.0329 15.5719 34.6914 15.6027 34.3319C15.6335 33.9724 15.5596 33.6115 15.3906 33.2963C15.2216 32.9811 14.9652 32.726 14.6549 32.5643C14.3446 32.4025 13.9947 32.3416 13.6507 32.3895ZM20.7854 37.785V41.3821H45V37.785H20.7854Z" fill="black"/>
</svg>