<svg viewBox="0 0 45 45" fill="none" xmlns="http://www.w3.org/2000/svg">
<path d="M35.2203 23.4774L25.2098 19.7927L21.5244 9.77609C21.3062 9.1833 20.9113 8.6717 20.3931 8.31033C19.875 7.94895 19.2584 7.7552 18.6266 7.7552C17.9948 7.7552 17.3782 7.94895 16.86 8.31033C16.3418 8.6717 15.947 9.1833 15.7287 9.77609L12.0395 19.781L2.02124 23.4657C1.42835 23.6839 0.916663 24.0787 0.555227 24.5968C0.193792 25.1149 0 25.7314 0 26.3631C0 26.9947 0.193792 27.6112 0.555227 28.1293C0.916663 28.6474 1.42835 29.0422 2.02124 29.2604L12.026 32.9684L15.7113 42.9791C15.9295 43.5719 16.3244 44.0835 16.8426 44.4449C17.3608 44.8062 17.9773 45 18.6091 45C19.2409 45 19.8575 44.8062 20.3757 44.4449C20.8939 44.0835 21.2887 43.5719 21.507 42.9791L25.1923 32.9703L35.2106 29.2856C35.8035 29.0674 36.3152 28.6726 36.6766 28.1545C37.038 27.6364 37.2318 27.0199 37.2318 26.3883C37.2318 25.7566 37.038 25.1401 36.6766 24.622C36.3152 24.1039 35.8035 23.7091 35.2106 23.4909L35.2203 23.4774ZM24.1274 30.0594C23.7081 30.2133 23.3273 30.4566 23.0114 30.7724C22.6956 31.0882 22.4523 31.4689 22.2983 31.8882L18.613 41.8679L14.9354 31.8804C14.7814 31.4634 14.5388 31.0846 14.2244 30.7703C13.91 30.4559 13.5312 30.2134 13.1141 30.0594L3.13266 26.3747L13.1141 22.69C13.5312 22.536 13.91 22.2935 14.2244 21.9791C14.5388 21.6647 14.7814 21.286 14.9354 20.869L18.6208 10.8893L22.3061 20.869C22.46 21.2882 22.7033 21.669 23.0192 21.9848C23.335 22.3006 23.7159 22.5439 24.1352 22.6977L34.1166 26.3824L24.1274 30.0594ZM24.8276 6.20581C24.8276 5.79434 24.9911 5.39972 25.2821 5.10877C25.5731 4.81781 25.9678 4.65436 26.3794 4.65436H29.4828V1.55145C29.4828 1.13998 29.6463 0.745364 29.9373 0.45441C30.2283 0.163456 30.623 0 31.0345 0C31.4461 0 31.8408 0.163456 32.1318 0.45441C32.4228 0.745364 32.5862 1.13998 32.5862 1.55145V4.65436H35.6897C36.1012 4.65436 36.4959 4.81781 36.7869 5.10877C37.0779 5.39972 37.2414 5.79434 37.2414 6.20581C37.2414 6.61728 37.0779 7.0119 36.7869 7.30285C36.4959 7.5938 36.1012 7.75726 35.6897 7.75726H32.5862V10.8602C32.5862 11.2716 32.4228 11.6663 32.1318 11.9572C31.8408 12.2482 31.4461 12.4116 31.0345 12.4116C30.623 12.4116 30.2283 12.2482 29.9373 11.9572C29.6463 11.6663 29.4828 11.2716 29.4828 10.8602V7.75726H26.3794C25.9678 7.75726 25.5731 7.5938 25.2821 7.30285C24.9911 7.0119 24.8276 6.61728 24.8276 6.20581ZM45 15.5145C45 15.926 44.8365 16.3206 44.5455 16.6116C44.2545 16.9025 43.8598 17.066 43.4483 17.066H41.8966V18.6174C41.8966 19.0289 41.7331 19.4235 41.4421 19.7145C41.1511 20.0054 40.7564 20.1689 40.3448 20.1689C39.9333 20.1689 39.5386 20.0054 39.2476 19.7145C38.9566 19.4235 38.7931 19.0289 38.7931 18.6174V17.066H37.2414C36.8299 17.066 36.4352 16.9025 36.1442 16.6116C35.8532 16.3206 35.6897 15.926 35.6897 15.5145C35.6897 15.1031 35.8532 14.7084 36.1442 14.4175C36.4352 14.1265 36.8299 13.9631 37.2414 13.9631H38.7931V12.4116C38.7931 12.0001 38.9566 11.6055 39.2476 11.3146C39.5386 11.0236 39.9333 10.8602 40.3448 10.8602C40.7564 10.8602 41.1511 11.0236 41.4421 11.3146C41.7331 11.6055 41.8966 12.0001 41.8966 12.4116V13.9631H43.4483C43.8598 13.9631 44.2545 14.1265 44.5455 14.4175C44.8365 14.7084 45 15.1031 45 15.5145Z" fill="black"/>
</svg>