<svg viewBox="0 0 46 46" fill="none" xmlns="http://www.w3.org/2000/svg">
<path d="M21.5953 23.9333L26.9524 29.5583C27.3453 29.9708 27.5417 30.4958 27.5417 31.1333C27.5417 31.7708 27.3453 32.2958 26.9524 32.7083C26.5595 33.1208 26.0595 33.3271 25.4524 33.3271C24.8453 33.3271 24.3453 33.1208 23.9524 32.7083L17.9524 26.4083C17.7381 26.1833 17.5774 25.9306 17.4703 25.6501C17.3631 25.3696 17.3095 25.0786 17.3095 24.7771V15.8333C17.3095 15.1958 17.5153 14.6611 17.9267 14.2291C18.3381 13.7971 18.8467 13.5818 19.4524 13.5833C20.0595 13.5833 20.5688 13.7993 20.9803 14.2313C21.3917 14.6633 21.5967 15.1973 21.5953 15.8333V23.9333ZM34.4524 11.3333H30.1667C29.5595 11.3333 29.0503 11.1181 28.6388 10.6876C28.2274 10.2571 28.0224 9.72232 28.0238 9.08332C28.0238 8.44582 28.2295 7.91107 28.641 7.47907C29.0524 7.04707 29.561 6.83182 30.1667 6.83332H34.4524V2.33332C34.4524 1.69582 34.6581 1.16107 35.0695 0.72907C35.481 0.297071 35.9895 0.0818208 36.5953 0.0833208C37.2024 0.0833208 37.7117 0.299321 38.1231 0.731321C38.5345 1.16332 38.7395 1.69732 38.7381 2.33332V6.83332H43.0238C43.631 6.83332 44.1403 7.04932 44.5517 7.48132C44.9631 7.91332 45.1681 8.44732 45.1667 9.08332C45.1667 9.72082 44.961 10.2556 44.5495 10.6876C44.1381 11.1196 43.6295 11.3348 43.0238 11.3333H38.7381V15.8333C38.7381 16.4708 38.5324 17.0056 38.121 17.4376C37.7095 17.8696 37.201 18.0848 36.5953 18.0833C35.9881 18.0833 35.4788 17.8673 35.0674 17.4353C34.656 17.0033 34.451 16.4693 34.4524 15.8333V11.3333ZM19.4524 45.0833C16.7738 45.0833 14.2645 44.5583 11.9245 43.5083C9.58454 42.4583 7.54026 41.0146 5.79169 39.1771C4.04169 37.3396 2.66669 35.1923 1.66669 32.7353C0.666687 30.2783 0.166687 27.6443 0.166687 24.8333C0.166687 22.0208 0.666687 19.3861 1.66669 16.9291C2.66669 14.4721 4.04169 12.3256 5.79169 10.4896C7.54169 8.65207 9.58669 7.20832 11.9267 6.15832C14.2667 5.10832 16.7753 4.58332 19.4524 4.58332C19.8453 4.58332 20.2117 4.59307 20.5517 4.61257C20.8917 4.63207 21.2574 4.67857 21.6488 4.75207C22.256 4.75207 22.7653 4.96807 23.1767 5.40007C23.5881 5.83207 23.7931 6.36607 23.7917 7.00207C23.7917 7.63957 23.586 8.17432 23.1745 8.60632C22.7631 9.03832 22.2545 9.25357 21.6488 9.25207C21.256 9.25207 20.8895 9.22357 20.5495 9.16657C20.2095 9.10957 19.8438 9.08182 19.4524 9.08332C15.2381 9.08332 11.6845 10.6021 8.79169 13.6396C5.89883 16.6771 4.4524 20.4083 4.4524 24.8333C4.4524 29.2583 5.89883 32.9896 8.79169 36.0271C11.6845 39.0646 15.2381 40.5833 19.4524 40.5833C23.6667 40.5833 27.2203 39.0646 30.1131 36.0271C33.006 32.9896 34.4524 29.2583 34.4524 24.8333C34.4524 24.1958 34.6581 23.6611 35.0695 23.2291C35.481 22.7971 35.9895 22.5818 36.5953 22.5833C37.2024 22.5833 37.7117 22.7993 38.1231 23.2313C38.5345 23.6633 38.7395 24.1973 38.7381 24.8333C38.7381 27.6458 38.2381 30.2806 37.2381 32.7376C36.2381 35.1946 34.8631 37.3411 33.1131 39.1771C31.3631 41.0146 29.3181 42.4583 26.9781 43.5083C24.6381 44.5583 22.1295 45.0833 19.4524 45.0833Z" fill="black"/>
</svg>