<svg viewBox="0 0 38 26" fill="none" xmlns="http://www.w3.org/2000/svg">
<path d="M19 8C20.3261 8 21.5979 8.52678 22.5356 9.46447C23.4732 10.4021 24 11.6739 24 13C24 14.3261 23.4732 15.5979 22.5356 16.5355C21.5979 17.4732 20.3261 18 19 18C17.6739 18 16.4022 17.4732 15.4645 16.5355C14.5268 15.5979 14 14.3261 14 13C14 11.6739 14.5268 10.4021 15.4645 9.46447C16.4022 8.52678 17.6739 8 19 8ZM19 0.5C27.3334 0.5 34.45 5.68333 37.3334 13C34.45 20.3167 27.3334 25.5 19 25.5C10.6667 25.5 3.55002 20.3167 0.666687 13C3.55002 5.68333 10.6667 0.5 19 0.5ZM4.30002 13C5.64711 15.7505 7.73886 18.0679 10.3375 19.6888C12.9361 21.3096 15.9373 22.1689 19 22.1689C22.0627 22.1689 25.0639 21.3096 27.6626 19.6888C30.2612 18.0679 32.3529 15.7505 33.7 13C32.3529 10.2495 30.2612 7.93209 27.6626 6.31124C25.0639 4.6904 22.0627 3.83113 19 3.83113C15.9373 3.83113 12.9361 4.6904 10.3375 6.31124C7.73886 7.93209 5.64711 10.2495 4.30002 13Z" fill="black"/>
</svg>