<svg viewBox="0 0 27 29" fill="none" xmlns="http://www.w3.org/2000/svg">
<path d="M22.1786 3.84374C21.9857 3.84374 21.8049 3.86796 21.6422 3.92245C20.4911 4.25546 18.8639 4.56425 17.1643 4.12226C13.7049 3.22011 9.65493 4.57031 6.63551 7.6037C3.61609 10.6371 2.27212 14.7059 3.17011 18.1812C3.61007 19.8887 3.3027 21.5234 2.97123 22.6799C2.92301 22.8494 2.89288 23.031 2.89288 23.2187C2.89288 24.2904 3.75471 25.1562 4.82145 25.1562C5.01431 25.1562 5.19511 25.132 5.35783 25.0775C6.50895 24.7445 8.13618 24.4297 9.83574 24.8777C13.2951 25.7799 17.3451 24.4297 20.3645 21.3963C23.3839 18.3629 24.7279 14.2941 23.8299 10.8187C23.39 9.11132 23.6973 7.47656 24.0288 6.32011C24.077 6.15058 24.1072 5.96894 24.1072 5.78124C24.1072 4.70956 23.2453 3.84374 22.1786 3.84374ZM22.1786 0.937493C24.8424 0.937493 27 3.10507 27 5.78124C27 6.24745 26.9337 6.70156 26.8132 7.13144C26.536 8.08808 26.3853 9.12343 26.6324 10.0922C27.8438 14.7906 25.9755 19.8705 22.4136 23.4549C18.8518 27.0393 13.7893 28.9162 9.11252 27.6932C8.14824 27.4449 7.12368 27.5963 6.16542 27.8748C5.73752 27.9959 5.28551 28.0625 4.82145 28.0625C2.15761 28.0625 2.11729e-05 25.8949 2.11729e-05 23.2187C2.11729e-05 22.7525 0.0663158 22.2984 0.186852 21.8685C0.464084 20.9119 0.614753 19.8766 0.367655 18.9078C-0.843729 14.2154 1.02457 9.12949 4.59243 5.55117C8.16029 1.97285 13.2168 0.0898371 17.8875 1.30683C18.8518 1.55507 19.8764 1.4037 20.8346 1.12519C21.2625 1.00409 21.7145 0.937493 22.1786 0.937493ZM14.8681 9.11132C11.7342 10.0316 9.05225 12.726 8.13618 15.8744C7.91319 16.6434 7.1056 17.0853 6.3402 16.8613C5.5748 16.6373 5.13484 15.826 5.35783 15.057C6.55114 10.958 9.97435 7.51894 14.0545 6.32011C14.8199 6.09609 15.6275 6.53808 15.8505 7.30702C16.0735 8.07597 15.6335 8.8873 14.8681 9.11132Z" fill="black"/>
</svg>