<svg viewBox="0 0 29 21" fill="none" xmlns="http://www.w3.org/2000/svg">
<path d="M2.07143 0H12.4286C12.9779 0 13.5048 0.221249 13.8933 0.615076C14.2818 1.0089 14.5 1.54305 14.5 2.1C14.5 2.65695 14.2818 3.1911 13.8933 3.58492C13.5048 3.97875 12.9779 4.2 12.4286 4.2H2.07143C1.52205 4.2 0.995176 3.97875 0.606707 3.58492C0.218239 3.1911 0 2.65695 0 2.1C0 1.54305 0.218239 1.0089 0.606707 0.615076C0.995176 0.221249 1.52205 0 2.07143 0ZM16.5714 16.8H26.9286C27.4779 16.8 28.0048 17.0212 28.3933 17.4151C28.7818 17.8089 29 18.343 29 18.9C29 19.457 28.7818 19.9911 28.3933 20.3849C28.0048 20.7787 27.4779 21 26.9286 21H16.5714C16.0221 21 15.4952 20.7787 15.1067 20.3849C14.7182 19.9911 14.5 19.457 14.5 18.9C14.5 18.343 14.7182 17.8089 15.1067 17.4151C15.4952 17.0212 16.0221 16.8 16.5714 16.8ZM2.07143 8.4H26.9286C27.4779 8.4 28.0048 8.62125 28.3933 9.01508C28.7818 9.4089 29 9.94304 29 10.5C29 11.057 28.7818 11.5911 28.3933 11.9849C28.0048 12.3787 27.4779 12.6 26.9286 12.6H2.07143C1.52205 12.6 0.995176 12.3787 0.606707 11.9849C0.218239 11.5911 0 11.057 0 10.5C0 9.94304 0.218239 9.4089 0.606707 9.01508C0.995176 8.62125 1.52205 8.4 2.07143 8.4Z" fill="black"/>
</svg>