<svg viewBox="0 0 208 208" fill="none" xmlns="http://www.w3.org/2000/svg">
<path d="M196 134.8L148.91 113.69L148.73 113.61C145.669 112.29 142.326 111.759 139.007 112.065C135.688 112.371 132.498 113.504 129.73 115.36C129.342 115.62 128.968 115.9 128.61 116.2L106.3 135.2C93.3001 128.15 79.8701 114.83 72.8101 101.99L91.8701 79.33C92.1765 78.9643 92.4603 78.5802 92.7201 78.18C94.5279 75.4215 95.6255 72.2588 95.9151 68.9735C96.2047 65.6882 95.6774 62.3822 94.3801 59.35C94.3493 59.2919 94.3225 59.2318 94.3001 59.17L73.2001 12C71.4681 8.05524 68.5121 4.77288 64.7697 2.63869C61.0272 0.504505 56.697 -0.368105 52.4201 0.15C37.9038 2.05693 24.578 9.18273 14.9314 20.1965C5.28493 31.2104 -0.022616 45.359 7.24407e-05 60C7.24407e-05 141.61 66.3901 208 148 208C162.641 208.023 176.79 202.715 187.804 193.069C198.817 183.422 205.943 170.096 207.85 155.58C208.368 151.303 207.496 146.973 205.361 143.23C203.227 139.488 199.945 136.532 196 134.8ZM148 184C115.125 183.96 83.6086 170.883 60.3627 147.637C37.1168 124.391 24.0398 92.8747 24.0001 60C23.9772 51.7149 26.7899 43.6715 31.9709 37.2062C37.1518 30.7409 44.3891 26.243 52.4801 24.46L71.3001 66.46L52.1401 89.28C51.8304 89.6491 51.5432 90.0364 51.2801 90.44C49.3916 93.3255 48.2813 96.6504 48.057 100.092C47.8327 103.533 48.5021 106.974 50.0001 110.08C59.4201 129.36 78.8301 148.64 98.3101 158.08C101.437 159.562 104.895 160.208 108.346 159.954C111.798 159.7 115.124 158.555 118 156.63C118.387 156.369 118.757 156.085 119.11 155.78L141.54 136.71L183.54 155.52C181.757 163.611 177.259 170.848 170.794 176.029C164.329 181.21 156.285 184.023 148 184Z" fill="black"/>
</svg>