<svg viewBox="0 0 25 25" fill="none" xmlns="http://www.w3.org/2000/svg">
<path fill-rule="evenodd" clip-rule="evenodd" d="M0 12.5C0 5.59659 5.59659 0 12.5 0C19.4034 0 25 5.59659 25 12.5C25 19.4034 19.4034 25 12.5 25C5.59659 25 0 19.4034 0 12.5ZM13.6364 5.68182C13.0761 5.68182 12.2602 5.84091 11.5523 6.35C10.7841 6.90227 10.2273 7.81136 10.2273 9.09091V11.3636H9.09091C8.78953 11.3636 8.50049 11.4834 8.28738 11.6965C8.07427 11.9096 7.95455 12.1986 7.95455 12.5C7.95455 12.8014 8.07427 13.0904 8.28738 13.3035C8.50049 13.5166 8.78953 13.6364 9.09091 13.6364H10.2273V14.7727C10.2273 14.9693 10.1591 15.2909 9.98636 15.5295C9.85682 15.7102 9.62955 15.9091 9.09091 15.9091C8.78953 15.9091 8.50049 16.0288 8.28738 16.2419C8.07427 16.455 7.95455 16.7441 7.95455 17.0455C7.95455 17.3468 8.07427 17.6359 8.28738 17.849C8.50049 18.0621 8.78953 18.1818 9.09091 18.1818H15.9091C16.2105 18.1818 16.4995 18.0621 16.7126 17.849C16.9257 17.6359 17.0455 17.3468 17.0455 17.0455C17.0455 16.7441 16.9257 16.455 16.7126 16.2419C16.4995 16.0288 16.2105 15.9091 15.9091 15.9091H12.3114C12.4477 15.492 12.5 15.0909 12.5 14.7727V13.6364H13.6364C13.9377 13.6364 14.2268 13.5166 14.4399 13.3035C14.653 13.0904 14.7727 12.8014 14.7727 12.5C14.7727 12.1986 14.653 11.9096 14.4399 11.6965C14.2268 11.4834 13.9377 11.3636 13.6364 11.3636H12.5V9.09091C12.5 8.55227 12.6989 8.325 12.8795 8.19545C13.1182 8.02273 13.4398 7.95455 13.6364 7.95455C13.833 7.95455 14.1545 8.02273 14.3932 8.19545C14.5739 8.325 14.7727 8.55227 14.7727 9.09091C14.7727 9.39229 14.8925 9.68133 15.1056 9.89444C15.3187 10.1075 15.6077 10.2273 15.9091 10.2273C16.2105 10.2273 16.4995 10.1075 16.7126 9.89444C16.9257 9.68133 17.0455 9.39229 17.0455 9.09091C17.0455 7.81136 16.4864 6.90227 15.7205 6.35C15.1098 5.92072 14.3828 5.68765 13.6364 5.68182Z" fill="black"/>
</svg>