<svg viewBox="0 0 150 152" fill="none" xmlns="http://www.w3.org/2000/svg">
<path d="M124.142 88.8261C124.156 90.9418 123.515 93.0095 122.309 94.7448C121.102 96.4801 119.39 97.7977 117.407 98.5163L84.018 110.84L71.7357 144.314C71.0084 146.297 69.6924 148.008 67.9654 149.217C66.2384 150.425 64.1835 151.073 62.0779 151.073C59.9723 151.073 57.9174 150.425 56.1904 149.217C54.4634 148.008 53.1475 146.297 52.4201 144.314L40.1055 110.879L6.73631 98.5552C4.76034 97.8254 3.05502 96.5051 1.85044 94.7723C0.64586 93.0395 0 90.9777 0 88.865C0 86.7524 0.64586 84.6906 1.85044 82.9578C3.05502 81.225 4.76034 79.9047 6.73631 79.1749L40.1249 66.8514L52.4072 33.3769C53.1345 31.3943 54.4505 29.6832 56.1775 28.4746C57.9045 27.266 59.9594 26.618 62.065 26.618C64.1706 26.618 66.2255 27.266 67.9525 28.4746C69.6795 29.6832 70.9954 31.3943 71.7228 33.3769L84.0051 66.8773L117.368 79.2008C119.348 79.9093 121.061 81.2142 122.274 82.9371C123.487 84.6601 124.139 86.7169 124.142 88.8261ZM87.9419 26.56H98.2849V36.9377C98.2849 38.3139 98.8298 39.6337 99.7996 40.6068C100.769 41.5799 102.085 42.1266 103.456 42.1266C104.828 42.1266 106.143 41.5799 107.113 40.6068C108.083 39.6337 108.628 38.3139 108.628 36.9377V26.56H118.971C120.343 26.56 121.658 26.0134 122.628 25.0403C123.598 24.0672 124.142 22.7474 124.142 21.3712C124.142 19.995 123.598 18.6752 122.628 17.7021C121.658 16.729 120.343 16.1824 118.971 16.1824H108.628V5.80468C108.628 4.42852 108.083 3.10872 107.113 2.13562C106.143 1.16252 104.828 0.615845 103.456 0.615845C102.085 0.615845 100.769 1.16252 99.7996 2.13562C98.8298 3.10872 98.2849 4.42852 98.2849 5.80468V16.1824H87.9419C86.5703 16.1824 85.2549 16.729 84.2851 17.7021C83.3153 18.6752 82.7704 19.995 82.7704 21.3712C82.7704 22.7474 83.3153 24.0672 84.2851 25.0403C85.2549 26.0134 86.5703 26.56 87.9419 26.56ZM144.828 47.3154H139.657V42.1266C139.657 40.7504 139.112 39.4306 138.142 38.4575C137.172 37.4844 135.857 36.9377 134.485 36.9377C133.114 36.9377 131.799 37.4844 130.829 38.4575C129.859 39.4306 129.314 40.7504 129.314 42.1266V47.3154H124.142C122.771 47.3154 121.455 47.8621 120.486 48.8352C119.516 49.8083 118.971 51.1281 118.971 52.5042C118.971 53.8804 119.516 55.2002 120.486 56.1733C121.455 57.1464 122.771 57.6931 124.142 57.6931H129.314V62.8819C129.314 64.2581 129.859 65.5779 130.829 66.551C131.799 67.5241 133.114 68.0708 134.485 68.0708C135.857 68.0708 137.172 67.5241 138.142 66.551C139.112 65.5779 139.657 64.2581 139.657 62.8819V57.6931H144.828C146.2 57.6931 147.515 57.1464 148.485 56.1733C149.455 55.2002 150 53.8804 150 52.5042C150 51.1281 149.455 49.8083 148.485 48.8352C147.515 47.8621 146.2 47.3154 144.828 47.3154Z" fill="#FEFFBE"/>
</svg>