<svg viewBox="0 0 150 151" fill="none" xmlns="http://www.w3.org/2000/svg">
<path d="M87.9422 26.2748C90.0514 26.2617 92.1128 26.9043 93.8428 28.1142C95.5729 29.3242 96.8865 31.042 97.6029 33.0313L109.889 66.5216L143.262 78.8414C145.238 79.5709 146.944 80.8909 148.149 82.6232C149.354 84.3554 150 86.4166 150 88.5286C150 90.6406 149.354 92.7018 148.149 94.4341C146.944 96.1663 145.238 97.4863 143.262 98.2158L109.928 110.568L97.6417 144.039C96.9141 146.021 95.5977 147.731 93.8702 148.94C92.1427 150.148 90.0872 150.796 87.981 150.796C85.8747 150.796 83.8192 150.148 82.0917 148.94C80.3642 147.731 79.0478 146.021 78.3202 144.039L66.0342 110.549L32.6615 98.2288C30.6849 97.4992 28.9791 96.1793 27.7741 94.447C26.5692 92.7148 25.9231 90.6536 25.9231 88.5416C25.9231 86.4296 26.5692 84.3684 27.7741 82.6361C28.9791 80.9039 30.6849 79.5839 32.6615 78.8543L66.0601 66.5346L78.3461 33.0702C79.0524 31.084 80.3534 29.3652 82.0711 28.1488C83.7888 26.9325 85.8393 26.2779 87.9422 26.2748ZM25.8653 62.5858V52.2112H36.2115C37.5835 52.2112 38.8993 51.6647 39.8694 50.6919C40.8395 49.7191 41.3845 48.3997 41.3845 47.0239C41.3845 45.6482 40.8395 44.3288 39.8694 43.356C38.8993 42.3832 37.5835 41.8367 36.2115 41.8367H25.8653V31.4621C25.8653 30.0864 25.3203 28.7669 24.3502 27.7941C23.38 26.8213 22.0643 26.2748 20.6923 26.2748C19.3203 26.2748 18.0045 26.8213 17.0344 27.7941C16.0642 28.7669 15.5192 30.0864 15.5192 31.4621V41.8367H5.17307C3.80108 41.8367 2.48529 42.3832 1.51516 43.356C0.545018 44.3288 0 45.6482 0 47.0239C0 48.3997 0.545018 49.7191 1.51516 50.6919C2.48529 51.6647 3.80108 52.2112 5.17307 52.2112H15.5192V62.5858C15.5192 63.9615 16.0642 65.2809 17.0344 66.2537C18.0045 67.2265 19.3203 67.773 20.6923 67.773C22.0643 67.773 23.38 67.2265 24.3502 66.2537C25.3203 65.2809 25.8653 63.9615 25.8653 62.5858ZM46.5576 5.52574V10.713H41.3845C40.0126 10.713 38.6968 11.2595 37.7266 12.2323C36.7565 13.2051 36.2115 14.5245 36.2115 15.9003C36.2115 17.276 36.7565 18.5954 37.7266 19.5682C38.6968 20.541 40.0126 21.0876 41.3845 21.0876H46.5576V26.2748C46.5576 27.6506 47.1026 28.97 48.0728 29.9428C49.0429 30.9156 50.3587 31.4621 51.7307 31.4621C53.1027 31.4621 54.4185 30.9156 55.3886 29.9428C56.3587 28.97 56.9037 27.6506 56.9037 26.2748V21.0876H62.0768C63.4488 21.0876 64.7646 20.541 65.7347 19.5682C66.7049 18.5954 67.2499 17.276 67.2499 15.9003C67.2499 14.5245 66.7049 13.2051 65.7347 12.2323C64.7646 11.2595 63.4488 10.713 62.0768 10.713H56.9037V5.52574C56.9037 4.14998 56.3587 2.83058 55.3886 1.85777C54.4185 0.884964 53.1027 0.338455 51.7307 0.338455C50.3587 0.338455 49.0429 0.884964 48.0728 1.85777C47.1026 2.83058 46.5576 4.14998 46.5576 5.52574Z" fill="#FEFFBE"/>
</svg>