<svg viewBox="0 0 30 31" fill="none" xmlns="http://www.w3.org/2000/svg">
<path d="M15 0.399414C6.75 0.399414 0 7.16999 0 15.4451C0 23.7203 6.75 30.4909 15 30.4909C23.25 30.4909 30 23.7203 30 15.4451C30 7.16999 23.25 0.399414 15 0.399414ZM12 22.968L4.5 15.4451L6.615 13.3237L12 18.7101L23.385 7.29036L25.5 9.42685L12 22.968Z" fill="black"/>
<path d="M15 0.399414C6.75 0.399414 0 7.16999 0 15.4451C0 23.7203 6.75 30.4909 15 30.4909C23.25 30.4909 30 23.7203 30 15.4451C30 7.16999 23.25 0.399414 15 0.399414ZM12 22.968L4.5 15.4451L6.615 13.3237L12 18.7101L23.385 7.29036L25.5 9.42685L12 22.968Z" fill="black"/>
</svg>