<svg viewBox="0 0 30 30" fill="none" xmlns="http://www.w3.org/2000/svg">
<circle cx="15" cy="15" r="14.5" fill="#FEFFBE" stroke="black"/>
<path d="M19.6 8.82C18.9164 8.03962 18.5397 7.03743 18.54 6H15.45V18.4C15.4261 19.071 15.1428 19.7066 14.6597 20.1729C14.1766 20.6393 13.5314 20.8999 12.86 20.9C11.44 20.9 10.26 19.74 10.26 18.3C10.26 16.58 11.92 15.29 13.63 15.82V12.66C10.18 12.2 7.15997 14.88 7.15997 18.3C7.15997 21.63 9.91997 24 12.85 24C15.99 24 18.54 21.45 18.54 18.3V12.01C19.793 12.9099 21.2973 13.3926 22.84 13.39V10.3C22.84 10.3 20.96 10.39 19.6 8.82Z" fill="black"/>
</svg>