<svg viewBox="0 0 20 19" fill="none" xmlns="http://www.w3.org/2000/svg">
<path d="M16.9 19L11.425 13.525L13.525 11.425L19 16.9L16.9 19ZM3.1 19L1 16.9L7.9 10L6.2 8.3L5.5 9L4.225 7.725V9.775L3.525 10.475L0.5 7.45L1.2 6.75H3.25L2 5.5L5.55 1.95C5.88333 1.61667 6.24167 1.375 6.625 1.225C7.00833 1.075 7.4 1 7.8 1C8.2 1 8.59167 1.075 8.975 1.225C9.35833 1.375 9.71667 1.61667 10.05 1.95L7.75 4.25L9 5.5L8.3 6.2L10 7.9L12.25 5.65C12.1833 5.46667 12.1293 5.275 12.088 5.075C12.0467 4.875 12.0257 4.675 12.025 4.475C12.025 3.49167 12.3627 2.66233 13.038 1.987C13.7133 1.31167 14.5423 0.974333 15.525 0.974999C15.775 0.974999 16.0127 1 16.238 1.05C16.4633 1.1 16.6923 1.175 16.925 1.275L14.45 3.75L16.25 5.55L18.725 3.075C18.8417 3.30833 18.921 3.53733 18.963 3.762C19.005 3.98667 19.0257 4.22433 19.025 4.475C19.025 5.45833 18.6877 6.28767 18.013 6.963C17.3383 7.63833 16.509 7.97567 15.525 7.975C15.325 7.975 15.125 7.95833 14.925 7.925C14.725 7.89167 14.5333 7.83333 14.35 7.75L3.1 19Z" fill="black"/>
</svg>