<svg viewBox="0 0 30 30" fill="none" xmlns="http://www.w3.org/2000/svg">
<circle cx="15" cy="15" r="14.5" fill="#FEFFBE" stroke="black"/>
<path d="M26.92 9C26.15 9.35 25.32 9.58 24.46 9.69C25.34 9.16 26.02 8.32 26.34 7.31C25.51 7.81 24.59 8.16 23.62 8.36C22.83 7.5 21.72 7 20.46 7C18.11 7 16.19 8.92 16.19 11.29C16.19 11.63 16.23 11.96 16.3 12.27C12.74 12.09 9.57 10.38 7.46 7.79C7.09 8.42 6.88 9.16 6.88 9.94C6.88 11.43 7.63 12.75 8.79 13.5C8.08 13.5 7.42 13.3 6.84 13V13.03C6.84 15.11 8.32 16.85 10.28 17.24C9.65073 17.4122 8.9901 17.4362 8.35 17.31C8.62161 18.1625 9.15354 18.9084 9.87102 19.4429C10.5885 19.9775 11.4554 20.2737 12.35 20.29C10.8336 21.4904 8.954 22.1393 7.02 22.13C6.68 22.13 6.34 22.11 6 22.07C7.9 23.29 10.16 24 12.58 24C20.46 24 24.79 17.46 24.79 11.79C24.79 11.6 24.79 11.42 24.78 11.23C25.62 10.63 26.34 9.87 26.92 9Z" fill="black"/>
</svg>